<svg xmlns="http://www.w3.org/2000/svg" width="760" height="500" viewBox="0 0 760 500">
  <rect width="760" height="500" fill="#f7f8fa"/>
  <rect x="44" y="38" width="672" height="424" rx="18" fill="#ffffff" stroke="#d9dde5"/>
  <rect x="96" y="92" width="248" height="310" rx="18" fill="#20242c"/>
  <rect x="114" y="122" width="212" height="248" rx="10" fill="#fff"/>
  <rect x="136" y="148" width="168" height="26" rx="6" fill="#e1251b"/>
  <rect x="136" y="198" width="168" height="18" rx="5" fill="#c9ced8"/>
  <rect x="136" y="234" width="126" height="18" rx="5" fill="#c9ced8"/>
  <rect x="136" y="282" width="168" height="48" rx="8" fill="#f2f3f5" stroke="#d9dde5"/>
  <circle cx="220" cy="386" r="9" fill="#464c58"/>
  <path d="M416 182h158m-158 72h202m-202 72h126" stroke="#e1251b" stroke-width="16" stroke-linecap="round"/>
  <path d="M394 182l-40 40m40 32l-40 40m40 32l-40 40" stroke="#8d98a8" stroke-width="8" stroke-linecap="round"/>
  <text x="380" y="440" text-anchor="middle" font-family="Arial, sans-serif" font-size="28" fill="#222">换货流程截图示例</text>
</svg>
